<svg width="100" height="68" viewBox="0 0 100 68" fill="none" xmlns="http://www.w3.org/2000/svg">
    <g opacity="0.5">
        <rect width="2.68817" height="2.68817" rx="1.34409" fill="white" />
        <rect x="10.7527" width="2.68817" height="2.68817" rx="1.34409" fill="white" />
        <rect x="21.5054" width="2.68817" height="2.68817" rx="1.34409" fill="white" />
        <rect x="32.2581" width="2.68817" height="2.68817" rx="1.34409" fill="white" />
        <rect x="43.0107" width="2.68817" height="2.68817" rx="1.34409" fill="white" />
        <rect x="53.7634" width="2.68817" height="2.68817" rx="1.34409" fill="white" />
        <rect x="64.5161" width="2.68817" height="2.68817" rx="1.34409" fill="white" />
        <rect x="75.2688" width="2.68817" height="2.68817" rx="1.34409" fill="white" />
        <rect x="86.0215" width="2.68817" height="2.68817" rx="1.34409" fill="white" />
        <rect x="96.7742" width="2.68817" height="2.68817" rx="1.34409" fill="white" />
        <rect y="10.7527" width="2.68817" height="2.68817" rx="1.34409" fill="white" />
        <rect x="10.7527" y="10.7527" width="2.68817" height="2.68817" rx="1.34409" fill="white" />
        <rect x="21.5054" y="10.7527" width="2.68817" height="2.68817" rx="1.34409" fill="white" />
        <rect x="32.2581" y="10.7527" width="2.68817" height="2.68817" rx="1.34409" fill="white" />
        <rect x="43.0107" y="10.7527" width="2.68817" height="2.68817" rx="1.34409" fill="white" />
        <rect x="53.7634" y="10.7527" width="2.68817" height="2.68817" rx="1.34409" fill="white" />
        <rect x="64.5161" y="10.7527" width="2.68817" height="2.68817" rx="1.34409" fill="white" />
        <rect x="75.2688" y="10.7527" width="2.68817" height="2.68817" rx="1.34409" fill="white" />
        <rect x="86.0215" y="10.7527" width="2.68817" height="2.68817" rx="1.34409" fill="white" />
        <rect x="96.7742" y="10.7527" width="2.68817" height="2.68817" rx="1.34409" fill="white" />
        <rect y="21.5054" width="2.68817" height="2.68817" rx="1.34409" fill="white" />
        <rect x="10.7527" y="21.5054" width="2.68817" height="2.68817" rx="1.34409" fill="white" />
        <rect x="21.5054" y="21.5054" width="2.68817" height="2.68817" rx="1.34409" fill="white" />
        <rect x="32.2581" y="21.5054" width="2.68817" height="2.68817" rx="1.34409" fill="white" />
        <rect x="43.0107" y="21.5054" width="2.68817" height="2.68817" rx="1.34409" fill="white" />
        <rect x="53.7634" y="21.5054" width="2.68817" height="2.68817" rx="1.34409" fill="white" />
        <rect x="64.5161" y="21.5054" width="2.68817" height="2.68817" rx="1.34409" fill="white" />
        <rect x="75.2688" y="21.5054" width="2.68817" height="2.68817" rx="1.34409" fill="white" />
        <rect x="86.0215" y="21.5054" width="2.68817" height="2.68817" rx="1.34409" fill="white" />
        <rect x="96.7742" y="21.5054" width="2.68817" height="2.68817" rx="1.34409" fill="white" />
        <rect y="32.2581" width="2.68817" height="2.68817" rx="1.34409" fill="white" />
        <rect x="10.7527" y="32.2581" width="2.68817" height="2.68817" rx="1.34409" fill="white" />
        <rect x="21.5054" y="32.2581" width="2.68817" height="2.68817" rx="1.34409" fill="white" />
        <rect x="32.2581" y="32.2581" width="2.68817" height="2.68817" rx="1.34409" fill="white" />
        <rect x="43.0107" y="32.2581" width="2.68817" height="2.68817" rx="1.34409" fill="white" />
        <rect x="53.7634" y="32.2581" width="2.68817" height="2.68817" rx="1.34409" fill="white" />
        <rect x="64.5161" y="32.2581" width="2.68817" height="2.68817" rx="1.34409" fill="white" />
        <rect x="75.2688" y="32.2581" width="2.68817" height="2.68817" rx="1.34409" fill="white" />
        <rect x="86.0215" y="32.2581" width="2.68817" height="2.68817" rx="1.34409" fill="white" />
        <rect x="96.7742" y="32.2581" width="2.68817" height="2.68817" rx="1.34409" fill="white" />
        <rect y="43.0107" width="2.68817" height="2.68817" rx="1.34409" fill="white" />
        <rect x="10.7527" y="43.0107" width="2.68817" height="2.68817" rx="1.34409" fill="white" />
        <rect x="21.5054" y="43.0107" width="2.68817" height="2.68817" rx="1.34409" fill="white" />
        <rect x="32.2581" y="43.0107" width="2.68817" height="2.68817" rx="1.34409" fill="white" />
        <rect x="43.0107" y="43.0107" width="2.68817" height="2.68817" rx="1.34409" fill="white" />
        <rect x="53.7634" y="43.0107" width="2.68817" height="2.68817" rx="1.34409" fill="white" />
        <rect x="64.5161" y="43.0107" width="2.68817" height="2.68817" rx="1.34409" fill="white" />
        <rect x="75.2688" y="43.0107" width="2.68817" height="2.68817" rx="1.34409" fill="white" />
        <rect x="86.0215" y="43.0107" width="2.68817" height="2.68817" rx="1.34409" fill="white" />
        <rect x="96.7742" y="43.0107" width="2.68817" height="2.68817" rx="1.34409" fill="white" />
        <rect y="53.7634" width="2.68817" height="2.68817" rx="1.34409" fill="white" />
        <rect x="10.7527" y="53.7634" width="2.68817" height="2.68817" rx="1.34409" fill="white" />
        <rect x="21.5054" y="53.7634" width="2.68817" height="2.68817" rx="1.34409" fill="white" />
        <rect x="32.2581" y="53.7634" width="2.68817" height="2.68817" rx="1.34409" fill="white" />
        <rect x="43.0107" y="53.7634" width="2.68817" height="2.68817" rx="1.34409" fill="white" />
        <rect x="53.7634" y="53.7634" width="2.68817" height="2.68817" rx="1.34409" fill="white" />
        <rect x="64.5161" y="53.7634" width="2.68817" height="2.68817" rx="1.34409" fill="white" />
        <rect x="75.2688" y="53.7634" width="2.68817" height="2.68817" rx="1.34409" fill="white" />
        <rect x="86.0215" y="53.7634" width="2.68817" height="2.68817" rx="1.34409" fill="white" />
        <rect x="96.7742" y="53.7634" width="2.68817" height="2.68817" rx="1.34409" fill="white" />
        <rect y="64.5161" width="2.68817" height="2.68817" rx="1.34409" fill="white" />
        <rect x="10.7527" y="64.5161" width="2.68817" height="2.68817" rx="1.34409" fill="white" />
        <rect x="21.5054" y="64.5161" width="2.68817" height="2.68817" rx="1.34409" fill="white" />
        <rect x="32.2581" y="64.5161" width="2.68817" height="2.68817" rx="1.34409" fill="white" />
        <rect x="43.0107" y="64.5161" width="2.68817" height="2.68817" rx="1.34409" fill="white" />
        <rect x="53.7634" y="64.5161" width="2.68817" height="2.68817" rx="1.34409" fill="white" />
        <rect x="64.5161" y="64.5161" width="2.68817" height="2.68817" rx="1.34409" fill="white" />
        <rect x="75.2688" y="64.5161" width="2.68817" height="2.68817" rx="1.34409" fill="white" />
        <rect x="86.0215" y="64.5161" width="2.68817" height="2.68817" rx="1.34409" fill="white" />
        <rect x="96.7742" y="64.5161" width="2.68817" height="2.68817" rx="1.34409" fill="white" />
    </g>
</svg>